<?xml version="1.0" encoding="UTF-8"?>
<svg id="Capa_2" data-name="Capa 2" xmlns="http://www.w3.org/2000/svg" viewBox="0 0 243.15 109.95">
  <defs>
    <style>
      .cls-1 {
        fill: #007385;
        stroke-width: 0px;
      }
    </style>
  </defs>
  <g id="Capa_1-2" data-name="Capa 1">
    <g>
      <g>
        <path class="cls-1" d="m9.03,48.24c1.06,1.16,2.23,2.06,3.51,2.7,1.28.64,2.66.96,4.14.96,1.72,0,3.12-.44,4.2-1.32,1.08-.88,1.62-2.08,1.62-3.6,0-1.32-.33-2.38-.99-3.18-.66-.8-1.64-1.51-2.94-2.13-1.3-.62-2.89-1.29-4.77-2.01-1-.36-2.15-.85-3.45-1.47-1.3-.62-2.53-1.42-3.69-2.4-1.16-.98-2.12-2.18-2.88-3.6-.76-1.42-1.14-3.13-1.14-5.13,0-2.4.61-4.47,1.83-6.21,1.22-1.74,2.88-3.08,4.98-4.02,2.1-.94,4.45-1.41,7.05-1.41s4.99.45,6.93,1.35c1.94.9,3.56,2.04,4.86,3.42,1.3,1.38,2.31,2.81,3.03,4.29l-6.72,3.72c-.56-1-1.23-1.91-2.01-2.73-.78-.82-1.67-1.48-2.67-1.98-1-.5-2.14-.75-3.42-.75-1.68,0-2.94.39-3.78,1.17-.84.78-1.26,1.69-1.26,2.73s.34,1.95,1.02,2.73c.68.78,1.72,1.52,3.12,2.22,1.4.7,3.16,1.41,5.28,2.13,1.36.48,2.67,1.08,3.93,1.8,1.26.72,2.4,1.59,3.42,2.61,1.02,1.02,1.82,2.22,2.4,3.6.58,1.38.87,2.97.87,4.77,0,2.04-.4,3.86-1.2,5.46-.8,1.6-1.9,2.95-3.3,4.05-1.4,1.1-2.97,1.94-4.71,2.52-1.74.58-3.57.87-5.49.87-2.56,0-4.95-.49-7.17-1.47s-4.15-2.31-5.79-3.99c-1.64-1.68-2.92-3.5-3.84-5.46l6.12-4.32c.88,1.56,1.85,2.92,2.91,4.08Z"/>
        <path class="cls-1" d="m83.81,36.62c1.24-2.14,2.88-3.77,4.92-4.89,2.04-1.12,4.2-1.68,6.48-1.68s4.37.58,6.15,1.74c1.78,1.16,3.18,2.81,4.2,4.95,1.02,2.14,1.53,4.71,1.53,7.71s-.51,5.52-1.53,7.68c-1.02,2.16-2.42,3.82-4.2,4.98-1.78,1.16-3.83,1.74-6.15,1.74s-4.44-.56-6.48-1.68c-2.04-1.12-3.68-2.76-4.92-4.92-1.24-2.16-1.86-4.76-1.86-7.8s.62-5.69,1.86-7.83Zm7.2,12.09c.68,1.2,1.6,2.12,2.76,2.76,1.16.64,2.4.96,3.72.96,1.16,0,2.29-.31,3.39-.93,1.1-.62,2-1.53,2.7-2.73.7-1.2,1.05-2.64,1.05-4.32s-.35-3.12-1.05-4.32c-.7-1.2-1.6-2.11-2.7-2.73-1.1-.62-2.23-.93-3.39-.93-1.32,0-2.56.32-3.72.96-1.16.64-2.08,1.56-2.76,2.76-.68,1.2-1.02,2.62-1.02,4.26s.34,3.06,1.02,4.26Zm21.43-18.07v27.61h-7.62v-27.61h7.62Z"/>
        <path class="cls-1" d="m125.9,58.26h-7.62v-27.61h7.62v27.61Zm6.51-20.62c-.54-.26-1.21-.39-2.01-.39-.96,0-1.78.26-2.46.78-.68.52-1.19,1.25-1.53,2.19-.34.94-.51,2.07-.51,3.39l-2.16-2.16c0-2.2.42-4.15,1.26-5.85.84-1.7,1.94-3.06,3.3-4.08,1.36-1.02,2.76-1.53,4.2-1.53,1,0,1.95.18,2.85.54.9.36,1.63.9,2.19,1.62l-3.54,6.6c-.52-.48-1.05-.85-1.59-1.11Z"/>
        <path class="cls-1" d="m156.86,30.65v6.54h-17.05v-6.54h17.05Zm-4.8-9.6v37.22h-7.5V21.05h7.5Z"/>
        <path class="cls-1" d="m27.88,94.38h3.72l5.76-14.11h18.09l5.8,14.11h3.72l-18.55-43.64-18.55,43.64Zm10.83-17.23l7.72-18.79,7.76,18.79h-15.48Z"/>
        <path class="cls-1" d="m68.35,72.87c1.2-2.14,2.81-3.79,4.83-4.95,2.02-1.16,4.25-1.74,6.69-1.74s4.46.63,6.18,1.89c1.72,1.26,3.07,2.97,4.05,5.13.98,2.16,1.47,4.62,1.47,7.38s-.49,5.17-1.47,7.35c-.98,2.18-2.33,3.9-4.05,5.16-1.72,1.26-3.78,1.89-6.18,1.89s-4.67-.58-6.69-1.74-3.63-2.82-4.83-4.98c-1.2-2.16-1.8-4.72-1.8-7.68s.6-5.57,1.8-7.71Zm2.79,13.9c.94,1.72,2.22,3.03,3.84,3.93,1.62.9,3.39,1.35,5.31,1.35,1.72,0,3.33-.5,4.83-1.5,1.5-1,2.71-2.36,3.63-4.08.92-1.72,1.38-3.68,1.38-5.88s-.46-4.16-1.38-5.88c-.92-1.72-2.13-3.08-3.63-4.08-1.5-1-3.11-1.5-4.83-1.5-1.92,0-3.69.45-5.31,1.35-1.62.9-2.9,2.21-3.84,3.93-.94,1.72-1.41,3.78-1.41,6.18s.47,4.46,1.41,6.18Zm19-19.99h3.12v40.82h-3.12v-40.82Z"/>
        <path class="cls-1" d="m104.62,89.97c1.04,1.38,2.68,2.07,4.92,2.07,1.56,0,2.95-.38,4.17-1.14,1.22-.76,2.18-1.78,2.88-3.06.7-1.28,1.05-2.7,1.05-4.26v-16.81h3.12v27.61h-3.12v-5.76c-.76,2-1.9,3.56-3.42,4.68-1.52,1.12-3.32,1.68-5.4,1.68-2.88,0-5.08-.93-6.6-2.79-1.52-1.86-2.28-4.37-2.28-7.53v-17.89h3.12v17.53c0,2.4.52,4.29,1.56,5.67Z"/>
        <path class="cls-1" d="m127.15,72.87c1.2-2.14,2.81-3.79,4.83-4.95,2.02-1.16,4.25-1.74,6.69-1.74s4.46.63,6.18,1.89c1.72,1.26,3.07,2.97,4.05,5.13.98,2.16,1.47,4.62,1.47,7.38s-.49,5.17-1.47,7.35c-.98,2.18-2.33,3.9-4.05,5.16-1.72,1.26-3.78,1.89-6.18,1.89s-4.67-.58-6.69-1.74c-2.02-1.16-3.63-2.82-4.83-4.98-1.2-2.16-1.8-4.72-1.8-7.68s.6-5.57,1.8-7.71Zm2.79,13.9c.94,1.72,2.22,3.03,3.84,3.93,1.62.9,3.39,1.35,5.31,1.35,1.72,0,3.33-.5,4.83-1.5,1.5-1,2.71-2.36,3.63-4.08.92-1.72,1.38-3.68,1.38-5.88s-.46-4.16-1.38-5.88c-.92-1.72-2.13-3.08-3.63-4.08-1.5-1-3.11-1.5-4.83-1.5-1.92,0-3.69.45-5.31,1.35-1.62.9-2.9,2.21-3.84,3.93-.94,1.72-1.41,3.78-1.41,6.18s.47,4.46,1.41,6.18Zm22.12-19.99v27.61h-2.94v-27.61h2.94Z"/>
        <g>
          <polygon class="cls-1" points="44.49 58.26 44.49 55.32 43.23 58.26 44.49 58.26"/>
          <path class="cls-1" d="m76.87,34.88c-.62-1.58-1.57-2.78-2.85-3.6-1.28-.82-2.94-1.23-4.98-1.23-1.88,0-3.55.4-5.01,1.2-1.46.8-2.69,1.98-3.69,3.54-.6-1.56-1.56-2.74-2.88-3.54-1.32-.8-3-1.2-5.04-1.2-1.84,0-3.42.4-4.74,1.2-1.32.8-2.38,1.96-3.18,3.48v-4.08h-7.5v27.61h3.65l3.59-8.45.26-.6v-7.75c0-1.2.2-2.23.6-3.09.4-.86.96-1.5,1.68-1.92.72-.42,1.56-.63,2.52-.63,1.44,0,2.48.47,3.12,1.41.64.94.96,2.35.96,4.23v16.81h7.74v-16.81c0-1.2.2-2.23.6-3.09.4-.86.96-1.5,1.68-1.92.72-.42,1.56-.63,2.52-.63,1.44,0,2.48.47,3.12,1.41.64.94.96,2.35.96,4.23v16.81h7.8v-17.65c0-2.24-.31-4.15-.93-5.73Z"/>
        </g>
      </g>
      <g>
        <path class="cls-1" d="m227.18,35.61c-.43,0-.83-.26-1.01-.69-6.23-15.15.04-33.29.26-34.12.16-.58.75-.92,1.33-.77.58.16.92.75.77,1.33-.05.2-5.72,17.65-.34,32.76.2.56-.06,1.19-.61,1.41-.13.05-.26.08-.4.08Zm-5,1.17c.54-.25.74-.87.54-1.44-4.76-12.9-.19-31.85-.14-32.06.14-.58-.22-1.17-.8-1.31-.58-.14-1.17.22-1.31.8-.21.86-5.16,19.66.28,33.46.16.41.58.63.99.63.15,0,.3-.03.45-.1Zm-4.84,2.56c.54-.25.75-.88.54-1.44-5-13.08-1.05-32.5-1.01-32.71.11-.59-.27-1.16-.86-1.27-.59-.11-1.16.27-1.27.86-.17.88-4.17,21.68,1.17,34.02.17.4.58.63.99.63.15,0,.3-.03.45-.1Zm-4.91,2.75c.54-.25.76-.88.54-1.44-5.22-12.75-1.68-32.77-1.64-32.97.1-.59-.3-1.15-.89-1.25-.59-.1-1.15.3-1.24.89-.14.88-3.75,20.57,1.81,34.22.17.41.58.63.99.63.15,0,.3-.03.45-.1Z"/>
        <path class="cls-1" d="m172.83,48.75c-.11,0-.22-.03-.33-.07-.56-.22-.84-.85-.63-1.42.1-.27,10.36-26.75,34.24-38.55.54-.27,1.19-.04,1.46.5.26.54.04,1.2-.5,1.47-23.1,11.42-33.06,37.11-33.16,37.36-.17.46-.62.73-1.08.71Zm5.59,1.44c.1-.23,10.07-23.6,27.75-33.4.53-.29.72-.96.43-1.49-.29-.53-.95-.73-1.48-.43-18.35,10.18-28.29,33.49-28.71,34.48-.23.56.03,1.2.58,1.44.12.05.24.08.36.09.45.03.88-.23,1.07-.67Zm4.69,2.47c.09-.22,9.22-21.73,22.66-29.1.53-.29.72-.96.44-1.49-.29-.53-.95-.73-1.48-.44-14.11,7.74-23.25,29.26-23.63,30.18-.23.56.03,1.2.58,1.44.12.05.24.08.36.08.45.03.88-.23,1.07-.67Zm4.5,2.49c.08-.19,7.72-18.67,18.37-24.67.53-.3.71-.97.42-1.49-.29-.53-.96-.72-1.48-.42-11.31,6.37-19,24.96-19.32,25.75-.23.56.04,1.2.59,1.43.11.05.23.07.35.08.45.03.89-.23,1.07-.68Zm13.92-13.68l.38-.48c1.57-2,2.44-3.1,4.42-4.64.48-.37.56-1.06.2-1.54-.37-.48-1.05-.57-1.53-.2-2.19,1.71-3.17,2.96-4.8,5.02l-.38.48c-.38.48-.3,1.17.17,1.54.18.15.4.22.61.24.34.02.69-.12.92-.41Z"/>
        <path class="cls-1" d="m204.6,109.95c-.18,0-.35-.04-.52-.13-.52-.29-.72-.94-.43-1.47,1.21-2.21,2.46-4.5,3.18-12.2.96-10.21,10.25-11.45,10.35-11.46.6-.07,1.13.35,1.2.94.07.59-.35,1.13-.94,1.2-.32.04-7.66,1.08-8.46,9.52-.77,8.14-2.12,10.63-3.44,13.03-.2.36-.57.56-.95.56Zm-4.87-1.16c.17-.32.35-.63.54-.94,1.24-2.12,2.64-4.53,3.37-11.49,1.44-13.67,13.19-14.48,13.7-14.51.6-.03,1.05-.54,1.02-1.14s-.52-1.07-1.14-1.03c-.14,0-14.1.89-15.74,16.44-.68,6.49-1.91,8.59-3.09,10.62-.19.33-.38.65-.56.99-.29.52-.09,1.18.43,1.47.16.09.34.13.52.13.38,0,.75-.2.95-.56Zm-5.16-1.36c.16-.3.34-.61.52-.93,1.31-2.31,2.94-5.18,3.5-9.99.07-.59-.36-1.13-.95-1.2-.6-.07-1.13.36-1.2.95-.5,4.37-2.01,7.03-3.23,9.17-.19.33-.37.65-.54.96-.29.52-.09,1.18.43,1.47.16.09.34.13.52.13.38,0,.75-.2.95-.56Zm-3.45-4.03l.1-.13c.43-.59,1.23-1.7,1.83-4.36.13-.58-.23-1.16-.82-1.29-.58-.13-1.16.23-1.29.82-.5,2.23-1.13,3.1-1.47,3.57l-.12.17c-.34.49-.22,1.17.27,1.51.19.13.4.19.61.19.34,0,.68-.16.89-.47Z"/>
        <path class="cls-1" d="m190.58,96.32c-.48,0-.92-.32-1.05-.81-.15-.58.19-1.17.77-1.32.16-.04.34-.09.53-.13,1.04-.25,2.34-.57,3.54-1.47,2.4-1.8,4.16-3.94,5.56-5.79,3.84-5.08,8.84-9.24,14.45-12.02l.32-.16c2.91-1.43,7.77-3.81,17.86-1.75.59.12.96.69.84,1.28-.12.59-.69.96-1.28.84-9.37-1.92-13.82.27-16.48,1.57l-.31.15c-5.31,2.63-10.04,6.57-13.68,11.38-1.49,1.97-3.37,4.26-5.98,6.22-1.56,1.17-3.23,1.57-4.33,1.84-.18.04-.34.08-.49.12-.09.02-.19.04-.28.04Zm-2.5-5.33c.15-.04.31-.08.49-.12,1.11-.27,2.78-.67,4.33-1.84,2.62-1.96,4.49-4.24,5.98-6.22,3.4-4.5,8.05-8.23,13.83-11.09l.19-.09c2.63-1.29,10.62-5.2,24.31-1.05.57.17,1.18-.15,1.35-.72.17-.57-.15-1.18-.72-1.35-9.63-2.92-18.34-2.53-25.89,1.18l-.19.1c-6.08,3.01-10.99,6.96-14.6,11.73-1.4,1.85-3.15,3.99-5.56,5.79-1.2.9-2.5,1.22-3.54,1.47-.19.05-.37.09-.53.13-.58.15-.92.74-.77,1.32.13.49.57.81,1.05.81.09,0,.18-.01.28-.04Z"/>
        <path class="cls-1" d="m186.28,104.86s-.1,0-.15,0c-.59-.08-1-.63-.92-1.22h0c.11-.81,2.44-19.8-17.28-27.15-.56-.21-.84-.83-.64-1.39.21-.56.83-.84,1.39-.64,21.36,7.97,18.69,29.26,18.66,29.47-.07.54-.54.93-1.07.93Zm-4.54-4.73c0-.55-.13-13.66-11.8-19.29-.54-.26-1.18-.03-1.44.5-.26.54-.03,1.18.5,1.44,10.39,5.01,10.57,17.15,10.58,17.34,0,.6.48,1.08,1.08,1.08s1.08-.48,1.08-1.08Zm6.04-16.01c.49-.33.62-1.01.29-1.5-6.52-9.62-18.83-14.73-19.35-14.94-.55-.22-1.18.04-1.41.59s.04,1.18.59,1.41c.12.05,12.23,5.09,18.38,14.15.21.31.55.47.9.47.21,0,.42-.06.61-.19Zm4.28-3.69c.48-.35.6-1.03.25-1.51-9.08-12.62-22.28-16.6-22.84-16.77-.57-.17-1.17.16-1.34.73-.17.57.16,1.17.73,1.34.13.04,13.06,3.96,21.69,15.95.21.29.54.45.88.45.22,0,.44-.07.63-.2Zm4.96-3.03c.5-.32.65-.99.33-1.49-9.01-14.06-26-19.16-26.71-19.37-.57-.17-1.17.16-1.34.73-.17.57.16,1.17.73,1.34.17.05,16.92,5.08,25.5,18.46.21.32.56.5.91.5.2,0,.4-.06.58-.17Zm4.87-3.39c.5-.33.64-1,.31-1.5-10.83-16.38-29.52-20.98-30.31-21.17-.58-.14-1.16.22-1.3.8-.14.58.22,1.16.8,1.3.19.04,18.66,4.61,29,20.26.21.31.55.49.9.49.2,0,.41-.06.6-.18Z"/>
        <path class="cls-1" d="m229.29,64.64c-4.92,0-8.26-1.77-11.76-3.63-.85-.45-1.72-.92-2.63-1.36-5.79-2.84-9.55-4.58-12.91-4.75-4.98-.24-8.54,2.16-9.83,3.21-.46.38-1.15.3-1.52-.16-.38-.46-.3-1.15.16-1.52,1.49-1.21,5.58-3.98,11.3-3.69,3.77.19,7.71,2,13.75,4.97.94.46,1.83.94,2.7,1.39,3.98,2.12,7.43,3.94,13.29,3.21,2.18-.27,4.33-.9,6.38-1.86.54-.25,1.19-.02,1.44.52.25.54.02,1.19-.52,1.44-2.26,1.06-4.62,1.75-7.03,2.05-.99.12-1.93.18-2.81.18Zm-12.51,1.1c.26-.54.04-1.18-.49-1.45l-1.51-.74c-5.33-2.63-9.18-4.53-12.64-4.7-3.23-.16-4.62.57-6.22,1.41-.19.1-.39.21-.6.31-.53.27-.74.92-.47,1.46.27.53.93.74,1.46.47.22-.11.42-.22.63-.33,1.48-.78,2.45-1.3,5.09-1.16,3.01.15,6.7,1.97,11.79,4.48l1.52.75c.15.08.32.11.48.11.4,0,.78-.22.97-.61Zm-6.28,2.89c.28-.53.08-1.18-.45-1.46-2.99-1.6-5.14-2.54-7.28-2.66-1.01-.06-2.03.04-3.02.29-.58.15-.93.73-.79,1.31.15.58.73.93,1.31.79.78-.2,1.58-.27,2.37-.23,1.73.1,3.73,1,6.38,2.41.16.09.34.13.51.13.39,0,.76-.21.96-.57Zm21.85-9.47c1.79-.22,3.81-.7,5.4-1.29.56-.21.85-.83.64-1.39-.21-.56-.83-.85-1.39-.64-1.11.41-2.99.93-4.92,1.17-5.72.71-8.82-.97-12.74-3.11-.94-.51-1.9-1.03-2.95-1.55-6.04-2.96-9.98-4.78-13.75-4.97-2.65-.13-5.23.36-7.69,1.48-.54.25-.79.89-.54,1.43.25.54.89.79,1.43.54,2.14-.97,4.39-1.4,6.69-1.29,3.36.17,7.12,1.91,12.91,4.75,1,.49,1.95,1.01,2.87,1.51,3.33,1.81,6.49,3.53,11.28,3.53.86,0,1.78-.06,2.76-.18Zm2.76-5.59c.58-.16.92-.75.76-1.33-.16-.58-.74-.92-1.33-.76-5.87,1.59-8.95-.15-12.86-2.36-.97-.55-1.97-1.11-3.05-1.64-5.48-2.69-9.47-4.36-13.66-4.96-3.72-.53-6.65.56-6.77.6-.56.21-.84.83-.63,1.39.21.56.83.84,1.39.63.02,0,2.55-.93,5.7-.49,3.49.5,6.77,1.7,13.01,4.76,1.03.5,2,1.05,2.94,1.59,2.94,1.66,5.75,3.25,9.71,3.25,1.42,0,3-.21,4.78-.69Z"/>
        <g>
          <circle class="cls-1" cx="201.3" cy="73.11" r="2.15"/>
          <circle class="cls-1" cx="211.65" cy="40.39" r="2.15"/>
          <circle class="cls-1" cx="216.95" cy="38.69" r="2.15"/>
          <circle class="cls-1" cx="222.2" cy="37.03" r="2.15"/>
          <circle class="cls-1" cx="227.54" cy="35.49" r="2.15"/>
          <circle class="cls-1" cx="196.44" cy="76.81" r="2.15"/>
          <circle class="cls-1" cx="191.99" cy="80.78" r="2.15"/>
          <circle class="cls-1" cx="188.16" cy="84.48" r="2.15"/>
        </g>
        <g>
          <circle class="cls-1" cx="219.43" cy="85.37" r="2.15"/>
          <circle class="cls-1" cx="218.54" cy="80.18" r="2.15"/>
        </g>
        <path class="cls-1" d="m219.1,44.61c-.44,0-.85-.27-1.01-.7-.21-.56.07-1.18.63-1.39l10.01-3.75c.56-.21,1.18.07,1.39.63.21.56-.07,1.18-.63,1.39l-10.01,3.75c-.12.05-.25.07-.38.07Zm4.37,3.26l7.79-2.91c.56-.21.84-.83.63-1.39-.21-.56-.83-.84-1.39-.63l-7.79,2.91c-.56.21-.84.83-.63,1.39.16.43.57.7,1.01.7.13,0,.25-.02.38-.07Zm5.49,2.48l4.3-1.48c.56-.19.86-.81.67-1.38s-.81-.86-1.38-.67l-4.3,1.48c-.56.19-.86.81-.67,1.38.15.45.57.73,1.02.73.12,0,.24-.02.35-.06Z"/>
        <path class="cls-1" d="m210.72,104.15c-.47,0-.9-.31-1.04-.78-.17-.57.16-1.17.73-1.34,25.02-7.38,24.99-28.03,24.98-28.91,0-.6.47-1.09,1.06-1.1.61-.02,1.09.46,1.1,1.06,0,.23.11,23.16-26.53,31.02-.1.03-.21.04-.31.04Zm2.35-6.31c17.44-7.07,18.63-20.38,18.67-20.95.04-.59-.4-1.11-1-1.16-.59-.04-1.11.4-1.16.99-.04.51-1.18,12.56-17.32,19.11-.55.22-.82.86-.6,1.41.17.42.58.68,1,.68.14,0,.27-.03.41-.08Zm10.98-15.36c1.62-2.41,1.94-3.64,2.38-5.33l.02-.07c.15-.58-.2-1.17-.77-1.32-.58-.15-1.17.2-1.32.77l-.02.07c-.42,1.6-.67,2.56-2.08,4.67-.33.5-.2,1.17.3,1.5.19.12.39.18.6.18.35,0,.69-.17.9-.48Zm-14.32,27.45c23.75-4.18,30.7-20.69,32.72-30.15.74-3.44.88-7.01.44-10.61-.37-3.01-.85-4.53-.87-4.59-.18-.57-.79-.88-1.36-.7s-.88.79-.7,1.36c0,.01.44,1.42.78,4.2.41,3.36.27,6.69-.41,9.89-1.91,8.93-8.48,24.51-30.98,28.47-.59.1-.98.66-.88,1.25.09.53.55.89,1.06.89.06,0,.13,0,.19-.02Z"/>
      </g>
    </g>
  </g>
</svg>