<?xml version="1.0" encoding="UTF-8"?>
<svg id="Capa_2" data-name="Capa 2" xmlns="http://www.w3.org/2000/svg" viewBox="0 0 75.93 109.95">
  <defs>
    <style>
      .cls-1 {
        fill: #fff;
        stroke-width: 0px;
      }
    </style>
  </defs>
  <g id="Capa_1-2" data-name="Capa 1">
    <g>
      <path class="cls-1" d="m59.96,35.61c-.43,0-.83-.26-1.01-.69-6.23-15.15.04-33.29.26-34.12.16-.58.75-.92,1.33-.77.58.16.92.75.77,1.33-.05.2-5.72,17.65-.34,32.76.2.56-.06,1.19-.61,1.41-.13.05-.26.08-.4.08Zm-5,1.17c.54-.25.74-.87.54-1.44-4.76-12.9-.19-31.85-.14-32.06.14-.58-.22-1.17-.8-1.31-.58-.14-1.17.22-1.31.8-.21.86-5.16,19.66.28,33.46.16.41.58.63.99.63.15,0,.3-.03.45-.1Zm-4.84,2.56c.54-.25.75-.88.54-1.44-5-13.08-1.05-32.5-1.01-32.71.11-.59-.27-1.16-.86-1.27-.59-.11-1.16.27-1.27.86-.17.88-4.17,21.68,1.17,34.02.17.4.58.63.99.63.15,0,.3-.03.45-.1Zm-4.91,2.75c.54-.25.76-.88.54-1.44-5.22-12.75-1.68-32.77-1.64-32.97.1-.59-.3-1.15-.89-1.25-.59-.1-1.15.3-1.24.89-.14.88-3.75,20.57,1.81,34.22.17.41.58.63.99.63.15,0,.3-.03.45-.1Z"/>
      <path class="cls-1" d="m5.61,48.75c-.11,0-.22-.03-.33-.07-.56-.22-.84-.85-.63-1.42.1-.27,10.36-26.75,34.24-38.55.54-.27,1.19-.04,1.46.5.26.54.04,1.2-.5,1.47C16.75,22.1,6.79,47.79,6.69,48.05c-.17.46-.62.73-1.08.71Zm5.59,1.44c.1-.23,10.07-23.6,27.75-33.4.53-.29.72-.96.43-1.49-.29-.53-.95-.73-1.48-.43C19.54,25.05,9.6,48.36,9.19,49.34c-.23.56.03,1.2.58,1.44.12.05.24.08.36.09.45.03.88-.23,1.07-.67Zm4.69,2.47c.09-.22,9.22-21.73,22.66-29.1.53-.29.72-.96.44-1.49-.29-.53-.95-.73-1.48-.44-14.11,7.74-23.25,29.26-23.63,30.18-.23.56.03,1.2.58,1.44.12.05.24.08.36.08.45.03.88-.23,1.07-.67Zm4.5,2.49c.08-.19,7.72-18.67,18.37-24.67.53-.3.71-.97.42-1.49-.29-.53-.96-.72-1.48-.42-11.31,6.37-19,24.96-19.32,25.75-.23.56.04,1.2.59,1.43.11.05.23.07.35.08.45.03.89-.23,1.07-.68Zm13.92-13.68l.38-.48c1.57-2,2.44-3.1,4.42-4.64.48-.37.56-1.06.2-1.54-.37-.48-1.05-.57-1.53-.2-2.19,1.71-3.17,2.96-4.8,5.02l-.38.48c-.38.48-.3,1.17.17,1.54.18.15.4.22.61.24.34.02.69-.12.92-.41Z"/>
      <path class="cls-1" d="m37.37,109.95c-.18,0-.35-.04-.52-.13-.52-.29-.72-.94-.43-1.47,1.21-2.21,2.46-4.5,3.18-12.2.96-10.21,10.25-11.45,10.35-11.46.6-.07,1.13.35,1.2.94.07.59-.35,1.13-.94,1.2-.32.04-7.66,1.08-8.46,9.52-.77,8.14-2.12,10.63-3.44,13.03-.2.36-.57.56-.95.56Zm-4.87-1.16c.17-.32.35-.63.54-.94,1.24-2.12,2.64-4.53,3.37-11.49,1.44-13.67,13.19-14.48,13.7-14.51.6-.03,1.05-.54,1.02-1.14s-.52-1.07-1.14-1.03c-.14,0-14.1.89-15.74,16.44-.68,6.49-1.91,8.59-3.09,10.62-.19.33-.38.65-.56.99-.29.52-.09,1.18.43,1.47.16.09.34.13.52.13.38,0,.75-.2.95-.56Zm-5.16-1.36c.16-.3.34-.61.52-.93,1.31-2.31,2.94-5.18,3.5-9.99.07-.59-.36-1.13-.95-1.2-.6-.07-1.13.36-1.2.95-.5,4.37-2.01,7.03-3.23,9.17-.19.33-.37.65-.54.96-.29.52-.09,1.18.43,1.47.16.09.34.13.52.13.38,0,.75-.2.95-.56Zm-3.45-4.03l.1-.13c.43-.59,1.23-1.7,1.83-4.36.13-.58-.23-1.16-.82-1.29-.58-.13-1.16.23-1.29.82-.5,2.23-1.13,3.1-1.47,3.57l-.12.17c-.34.49-.22,1.17.27,1.51.19.13.4.19.61.19.34,0,.68-.16.89-.47Z"/>
      <path class="cls-1" d="m23.35,96.32c-.48,0-.92-.32-1.05-.81-.15-.58.19-1.17.77-1.32.16-.04.34-.09.53-.13,1.04-.25,2.34-.57,3.54-1.47,2.4-1.8,4.16-3.94,5.56-5.79,3.84-5.08,8.84-9.24,14.45-12.02l.32-.16c2.91-1.43,7.77-3.81,17.86-1.75.59.12.96.69.84,1.28-.12.59-.69.96-1.28.84-9.37-1.92-13.82.27-16.48,1.57l-.31.15c-5.31,2.63-10.04,6.57-13.68,11.38-1.49,1.97-3.37,4.26-5.98,6.22-1.56,1.17-3.23,1.57-4.33,1.84-.18.04-.34.08-.49.12-.09.02-.19.04-.28.04Zm-2.5-5.33c.15-.04.31-.08.49-.12,1.11-.27,2.78-.67,4.33-1.84,2.62-1.96,4.49-4.24,5.98-6.22,3.4-4.5,8.05-8.23,13.83-11.09l.19-.09c2.63-1.29,10.62-5.2,24.31-1.05.57.17,1.18-.15,1.35-.72.17-.57-.15-1.18-.72-1.35-9.63-2.92-18.34-2.53-25.89,1.18l-.19.1c-6.08,3.01-10.99,6.96-14.6,11.73-1.4,1.85-3.15,3.99-5.56,5.79-1.2.9-2.5,1.22-3.54,1.47-.19.05-.37.09-.53.13-.58.15-.92.74-.77,1.32.13.49.57.81,1.05.81.09,0,.18-.01.28-.04Z"/>
      <path class="cls-1" d="m19.05,104.86s-.1,0-.15,0c-.59-.08-1-.63-.92-1.22h0c.11-.81,2.44-19.8-17.28-27.15-.56-.21-.84-.83-.64-1.39.21-.56.83-.84,1.39-.64,21.36,7.97,18.69,29.26,18.66,29.47-.07.54-.54.93-1.07.93Zm-4.54-4.73c0-.55-.13-13.66-11.8-19.29-.54-.26-1.18-.03-1.44.5-.26.54-.03,1.18.5,1.44,10.39,5.01,10.57,17.15,10.58,17.34,0,.6.48,1.08,1.08,1.08s1.08-.48,1.08-1.08Zm6.04-16.01c.49-.33.62-1.01.29-1.5-6.52-9.62-18.83-14.73-19.35-14.94-.55-.22-1.18.04-1.41.59s.04,1.18.59,1.41c.12.05,12.23,5.09,18.38,14.15.21.31.55.47.9.47.21,0,.42-.06.61-.19Zm4.28-3.69c.48-.35.6-1.03.25-1.51C16,66.3,2.8,62.32,2.24,62.15c-.57-.17-1.17.16-1.34.73-.17.57.16,1.17.73,1.34.13.04,13.06,3.96,21.69,15.95.21.29.54.45.88.45.22,0,.44-.07.63-.2Zm4.96-3.03c.5-.32.65-.99.33-1.49-9.01-14.06-26-19.16-26.71-19.37-.57-.17-1.17.16-1.34.73-.17.57.16,1.17.73,1.34.17.05,16.92,5.08,25.5,18.46.21.32.56.5.91.5.2,0,.4-.06.58-.17Zm4.87-3.39c.5-.33.64-1,.31-1.5-10.83-16.38-29.52-20.98-30.31-21.17-.58-.14-1.16.22-1.3.8-.14.58.22,1.16.8,1.3.19.04,18.66,4.61,29,20.26.21.31.55.49.9.49.2,0,.41-.06.6-.18Z"/>
      <path class="cls-1" d="m62.06,64.64c-4.92,0-8.26-1.77-11.76-3.63-.85-.45-1.72-.92-2.63-1.36-5.79-2.84-9.55-4.58-12.91-4.75-4.98-.24-8.54,2.16-9.83,3.21-.46.38-1.15.3-1.52-.16-.38-.46-.3-1.15.16-1.52,1.49-1.21,5.58-3.98,11.3-3.69,3.77.19,7.71,2,13.75,4.97.94.46,1.83.94,2.7,1.39,3.98,2.12,7.43,3.94,13.29,3.21,2.18-.27,4.33-.9,6.38-1.86.54-.25,1.19-.02,1.44.52.25.54.02,1.19-.52,1.44-2.26,1.06-4.62,1.75-7.03,2.05-.99.12-1.93.18-2.81.18Zm-12.51,1.1c.26-.54.04-1.18-.49-1.45l-1.51-.74c-5.33-2.63-9.18-4.53-12.64-4.7-3.23-.16-4.62.57-6.22,1.41-.19.1-.39.21-.6.31-.53.27-.74.92-.47,1.46.27.53.93.74,1.46.47.22-.11.42-.22.63-.33,1.48-.78,2.45-1.3,5.09-1.16,3.01.15,6.7,1.97,11.79,4.48l1.52.75c.15.08.32.11.48.11.4,0,.78-.22.97-.61Zm-6.28,2.89c.28-.53.08-1.18-.45-1.46-2.99-1.6-5.14-2.54-7.28-2.66-1.01-.06-2.03.04-3.02.29-.58.15-.93.73-.79,1.31.15.58.73.93,1.31.79.78-.2,1.58-.27,2.37-.23,1.73.1,3.73,1,6.38,2.41.16.09.34.13.51.13.39,0,.76-.21.96-.57Zm21.85-9.47c1.79-.22,3.81-.7,5.4-1.29.56-.21.85-.83.64-1.39-.21-.56-.83-.85-1.39-.64-1.11.41-2.99.93-4.92,1.17-5.72.71-8.82-.97-12.74-3.11-.94-.51-1.9-1.03-2.95-1.55-6.04-2.96-9.98-4.78-13.75-4.97-2.65-.13-5.23.36-7.69,1.48-.54.25-.79.89-.54,1.43.25.54.89.79,1.43.54,2.14-.97,4.39-1.4,6.69-1.29,3.36.17,7.12,1.91,12.91,4.75,1,.49,1.95,1.01,2.87,1.51,3.33,1.81,6.49,3.53,11.28,3.53.86,0,1.78-.06,2.76-.18Zm2.76-5.59c.58-.16.92-.75.76-1.33-.16-.58-.74-.92-1.33-.76-5.87,1.59-8.95-.15-12.86-2.36-.97-.55-1.97-1.11-3.05-1.64-5.48-2.69-9.47-4.36-13.66-4.96-3.72-.53-6.65.56-6.77.6-.56.21-.84.83-.63,1.39.21.56.83.84,1.39.63.02,0,2.55-.93,5.7-.49,3.49.5,6.77,1.7,13.01,4.76,1.03.5,2,1.05,2.94,1.59,2.94,1.66,5.75,3.25,9.71,3.25,1.42,0,3-.21,4.78-.69Z"/>
      <g>
        <circle class="cls-1" cx="34.07" cy="73.11" r="2.15"/>
        <circle class="cls-1" cx="44.42" cy="40.39" r="2.15"/>
        <circle class="cls-1" cx="49.72" cy="38.69" r="2.15"/>
        <circle class="cls-1" cx="54.97" cy="37.03" r="2.15"/>
        <circle class="cls-1" cx="60.31" cy="35.49" r="2.15"/>
        <circle class="cls-1" cx="29.21" cy="76.81" r="2.15"/>
        <circle class="cls-1" cx="24.76" cy="80.78" r="2.15"/>
        <circle class="cls-1" cx="20.94" cy="84.48" r="2.15"/>
      </g>
      <g>
        <circle class="cls-1" cx="52.2" cy="85.37" r="2.15"/>
        <circle class="cls-1" cx="51.32" cy="80.18" r="2.15"/>
      </g>
      <path class="cls-1" d="m51.87,44.61c-.44,0-.85-.27-1.01-.7-.21-.56.07-1.18.63-1.39l10.01-3.75c.56-.21,1.18.07,1.39.63.21.56-.07,1.18-.63,1.39l-10.01,3.75c-.12.05-.25.07-.38.07Zm4.37,3.26l7.79-2.91c.56-.21.84-.83.63-1.39-.21-.56-.83-.84-1.39-.63l-7.79,2.91c-.56.21-.84.83-.63,1.39.16.43.57.7,1.01.7.13,0,.25-.02.38-.07Zm5.49,2.48l4.3-1.48c.56-.19.86-.81.67-1.38s-.81-.86-1.38-.67l-4.3,1.48c-.56.19-.86.81-.67,1.38.15.45.57.73,1.02.73.12,0,.24-.02.35-.06Z"/>
      <path class="cls-1" d="m43.49,104.15c-.47,0-.9-.31-1.04-.78-.17-.57.16-1.17.73-1.34,25.02-7.38,24.99-28.03,24.98-28.91,0-.6.47-1.09,1.06-1.1.61-.02,1.09.46,1.1,1.06,0,.23.11,23.16-26.53,31.02-.1.03-.21.04-.31.04Zm2.35-6.31c17.44-7.07,18.63-20.38,18.67-20.95.04-.59-.4-1.11-1-1.16-.59-.04-1.11.4-1.16.99-.04.51-1.18,12.56-17.32,19.11-.55.22-.82.86-.6,1.41.17.42.58.68,1,.68.14,0,.27-.03.41-.08Zm10.98-15.36c1.62-2.41,1.94-3.64,2.38-5.33l.02-.07c.15-.58-.2-1.17-.77-1.32-.58-.15-1.17.2-1.32.77l-.02.07c-.42,1.6-.67,2.56-2.08,4.67-.33.5-.2,1.17.3,1.5.19.12.39.18.6.18.35,0,.69-.17.9-.48Zm-14.32,27.45c23.75-4.18,30.7-20.69,32.72-30.15.74-3.44.88-7.01.44-10.61-.37-3.01-.85-4.53-.87-4.59-.18-.57-.79-.88-1.36-.7s-.88.79-.7,1.36c0,.01.44,1.42.78,4.2.41,3.36.27,6.69-.41,9.89-1.91,8.93-8.48,24.51-30.98,28.47-.59.1-.98.66-.88,1.25.09.53.55.89,1.06.89.06,0,.13,0,.19-.02Z"/>
    </g>
  </g>
</svg>